<svg id="visual" viewBox="0 0 960 540" width="960" height="540" xmlns="http://www.w3.org/2000/svg" xmlns:xlink="http://www.w3.org/1999/xlink" version="1.1"><rect x="0" y="0" width="960" height="540" fill="#82954B"></rect><path d="M401 0L380.5 12.8C360 25.7 319 51.3 279.5 77C240 102.7 202 128.3 203.5 154C205 179.7 246 205.3 266.5 231.2C287 257 287 283 297.3 308.8C307.7 334.7 328.3 360.3 330.3 386C332.3 411.7 315.7 437.3 329 463C342.3 488.7 385.7 514.3 407.3 527.2L429 540L0 540L0 527.2C0 514.3 0 488.7 0 463C0 437.3 0 411.7 0 386C0 360.3 0 334.7 0 308.8C0 283 0 257 0 231.2C0 205.3 0 179.7 0 154C0 128.3 0 102.7 0 77C0 51.3 0 25.7 0 12.8L0 0Z" fill="#EFD345" stroke-linecap="round" stroke-linejoin="miter"></path></svg>