<svg id="visual" viewBox="0 0 960 540" width="960" height="540" xmlns="http://www.w3.org/2000/svg" xmlns:xlink="http://www.w3.org/1999/xlink" version="1.1"><rect x="0" y="0" width="960" height="540" fill="#82954B"></rect><path d="M229 0L242.5 12.8C256 25.7 283 51.3 297.2 77C311.3 102.7 312.7 128.3 328.3 154C344 179.7 374 205.3 376.2 231.2C378.3 257 352.7 283 318.3 308.8C284 334.7 241 360.3 257.8 386C274.7 411.7 351.3 437.3 377.7 463C404 488.7 380 514.3 368 527.2L356 540L0 540L0 527.2C0 514.3 0 488.7 0 463C0 437.3 0 411.7 0 386C0 360.3 0 334.7 0 308.8C0 283 0 257 0 231.2C0 205.3 0 179.7 0 154C0 128.3 0 102.7 0 77C0 51.3 0 25.7 0 12.8L0 0Z" fill="#EFD345" stroke-linecap="round" stroke-linejoin="miter"></path></svg>