<svg id="visual" viewBox="0 0 960 540" width="960" height="540" xmlns="http://www.w3.org/2000/svg" xmlns:xlink="http://www.w3.org/1999/xlink" version="1.1"><g stroke-width="1" stroke-linejoin="bevel"><path d="M508 264L491 330L513 264Z" fill="#cac147" stroke="#cac147"></path><path d="M418 336L464 357L491 330Z" fill="#8b9c4b" stroke="#8b9c4b"></path><path d="M594 347L597 300L491 330Z" fill="#cac147" stroke="#cac147"></path><path d="M491 330L597 300L513 264Z" fill="#bebb48" stroke="#bebb48"></path><path d="M611 385L594 347L533 450Z" fill="#a8af4a" stroke="#a8af4a"></path><path d="M406 267L418 336L491 330Z" fill="#cac147" stroke="#cac147"></path><path d="M480 165L439 230L508 264Z" fill="#a8af4a" stroke="#a8af4a"></path><path d="M508 264L406 267L491 330Z" fill="#9ea84a" stroke="#9ea84a"></path><path d="M480 165L508 264L486 163Z" fill="#94a24b" stroke="#94a24b"></path><path d="M597 300L565 205L513 264Z" fill="#d6c746" stroke="#d6c746"></path><path d="M439 230L406 267L508 264Z" fill="#b3b549" stroke="#b3b549"></path><path d="M597 300L592 201L565 205Z" fill="#d6c746" stroke="#d6c746"></path><path d="M533 450L594 347L491 330Z" fill="#cac147" stroke="#cac147"></path><path d="M671 326L670 276L597 300Z" fill="#e2cd46" stroke="#e2cd46"></path><path d="M597 300L628 218L592 201Z" fill="#94a24b" stroke="#94a24b"></path><path d="M406 204L401 217L439 230Z" fill="#e2cd46" stroke="#e2cd46"></path><path d="M439 230L401 217L406 267Z" fill="#8b9c4b" stroke="#8b9c4b"></path><path d="M508 264L513 264L486 163Z" fill="#d6c746" stroke="#d6c746"></path><path d="M486 163L513 264L565 205Z" fill="#d6c746" stroke="#d6c746"></path><path d="M532 158L486 163L565 205Z" fill="#82954b" stroke="#82954b"></path><path d="M480 165L406 204L439 230Z" fill="#bebb48" stroke="#bebb48"></path><path d="M670 276L628 218L597 300Z" fill="#e2cd46" stroke="#e2cd46"></path><path d="M612 143L532 158L592 201Z" fill="#bebb48" stroke="#bebb48"></path><path d="M592 201L532 158L565 205Z" fill="#82954b" stroke="#82954b"></path><path d="M418 336L433 429L464 357Z" fill="#94a24b" stroke="#94a24b"></path><path d="M464 357L533 450L491 330Z" fill="#bebb48" stroke="#bebb48"></path><path d="M363 395L433 429L418 336Z" fill="#cac147" stroke="#cac147"></path><path d="M433 429L533 450L464 357Z" fill="#8b9c4b" stroke="#8b9c4b"></path><path d="M501 506L539 452L533 450Z" fill="#8b9c4b" stroke="#8b9c4b"></path><path d="M533 450L539 452L611 385Z" fill="#b3b549" stroke="#b3b549"></path><path d="M671 326L597 300L594 347Z" fill="#cac147" stroke="#cac147"></path><path d="M611 385L671 326L594 347Z" fill="#e2cd46" stroke="#e2cd46"></path><path d="M401 217L340 296L406 267Z" fill="#b3b549" stroke="#b3b549"></path><path d="M406 267L340 296L418 336Z" fill="#9ea84a" stroke="#9ea84a"></path><path d="M289 216L340 296L401 217Z" fill="#8b9c4b" stroke="#8b9c4b"></path><path d="M340 296L351 366L418 336Z" fill="#82954b" stroke="#82954b"></path><path d="M351 366L363 395L418 336Z" fill="#8b9c4b" stroke="#8b9c4b"></path><path d="M357 488L444 464L433 429Z" fill="#efd345" stroke="#efd345"></path><path d="M433 429L444 464L533 450Z" fill="#efd345" stroke="#efd345"></path><path d="M723 410L686 327L671 326Z" fill="#e2cd46" stroke="#e2cd46"></path><path d="M671 326L686 327L670 276Z" fill="#9ea84a" stroke="#9ea84a"></path><path d="M723 410L671 326L611 385Z" fill="#efd345" stroke="#efd345"></path><path d="M695 179L612 143L628 218Z" fill="#efd345" stroke="#efd345"></path><path d="M628 218L612 143L592 201Z" fill="#bebb48" stroke="#bebb48"></path><path d="M532 158L458 86L486 163Z" fill="#d6c746" stroke="#d6c746"></path><path d="M741 314L696 240L670 276Z" fill="#cac147" stroke="#cac147"></path><path d="M670 276L696 240L628 218Z" fill="#a8af4a" stroke="#a8af4a"></path><path d="M501 506L586 486L539 452Z" fill="#9ea84a" stroke="#9ea84a"></path><path d="M539 452L586 486L611 385Z" fill="#a8af4a" stroke="#a8af4a"></path><path d="M332 452L357 431L363 395Z" fill="#9ea84a" stroke="#9ea84a"></path><path d="M363 395L357 431L433 429Z" fill="#bebb48" stroke="#bebb48"></path><path d="M332 452L363 395L351 366Z" fill="#82954b" stroke="#82954b"></path><path d="M458 86L356 165L406 204Z" fill="#9ea84a" stroke="#9ea84a"></path><path d="M406 204L356 165L401 217Z" fill="#efd345" stroke="#efd345"></path><path d="M458 86L406 204L480 165Z" fill="#d6c746" stroke="#d6c746"></path><path d="M458 86L480 165L486 163Z" fill="#d6c746" stroke="#d6c746"></path><path d="M476 540L501 506L444 464Z" fill="#94a24b" stroke="#94a24b"></path><path d="M444 464L501 506L533 450Z" fill="#9ea84a" stroke="#9ea84a"></path><path d="M585 540L628 481L586 486Z" fill="#8b9c4b" stroke="#8b9c4b"></path><path d="M586 486L628 481L611 385Z" fill="#bebb48" stroke="#bebb48"></path><path d="M723 410L726 327L686 327Z" fill="#efd345" stroke="#efd345"></path><path d="M686 327L726 327L670 276Z" fill="#d6c746" stroke="#d6c746"></path><path d="M497 51L458 86L532 158Z" fill="#a8af4a" stroke="#a8af4a"></path><path d="M777 173L695 179L696 240Z" fill="#d6c746" stroke="#d6c746"></path><path d="M696 240L695 179L628 218Z" fill="#a8af4a" stroke="#a8af4a"></path><path d="M633 81L588 88L612 143Z" fill="#8b9c4b" stroke="#8b9c4b"></path><path d="M612 143L588 88L532 158Z" fill="#94a24b" stroke="#94a24b"></path><path d="M783 323L741 314L726 327Z" fill="#e2cd46" stroke="#e2cd46"></path><path d="M726 327L741 314L670 276Z" fill="#e2cd46" stroke="#e2cd46"></path><path d="M261 460L332 452L226 392Z" fill="#d6c746" stroke="#d6c746"></path><path d="M357 431L357 488L433 429Z" fill="#efd345" stroke="#efd345"></path><path d="M695 179L669 126L612 143Z" fill="#a8af4a" stroke="#a8af4a"></path><path d="M356 165L289 216L401 217Z" fill="#e2cd46" stroke="#e2cd46"></path><path d="M340 296L271 324L351 366Z" fill="#efd345" stroke="#efd345"></path><path d="M264 213L289 216L267 191Z" fill="#d6c746" stroke="#d6c746"></path><path d="M628 481L723 410L611 385Z" fill="#94a24b" stroke="#94a24b"></path><path d="M289 216L271 324L340 296Z" fill="#9ea84a" stroke="#9ea84a"></path><path d="M355 540L476 540L444 464Z" fill="#cac147" stroke="#cac147"></path><path d="M501 506L585 540L586 486Z" fill="#9ea84a" stroke="#9ea84a"></path><path d="M346 483L357 488L357 431Z" fill="#d6c746" stroke="#d6c746"></path><path d="M357 488L346 483L353 540Z" fill="#e2cd46" stroke="#e2cd46"></path><path d="M332 452L346 483L357 431Z" fill="#82954b" stroke="#82954b"></path><path d="M588 88L497 51L532 158Z" fill="#82954b" stroke="#82954b"></path><path d="M267 191L289 216L356 165Z" fill="#cac147" stroke="#cac147"></path><path d="M289 216L261 323L271 324Z" fill="#e2cd46" stroke="#e2cd46"></path><path d="M226 392L332 452L351 366Z" fill="#b3b549" stroke="#b3b549"></path><path d="M651 92L633 81L612 143Z" fill="#efd345" stroke="#efd345"></path><path d="M588 88L549 28L497 51Z" fill="#e2cd46" stroke="#e2cd46"></path><path d="M669 126L651 92L612 143Z" fill="#efd345" stroke="#efd345"></path><path d="M476 540L585 540L501 506Z" fill="#e2cd46" stroke="#e2cd46"></path><path d="M628 481L719 508L723 410Z" fill="#b3b549" stroke="#b3b549"></path><path d="M267 191L356 165L258 128Z" fill="#efd345" stroke="#efd345"></path><path d="M289 216L264 213L261 323Z" fill="#efd345" stroke="#efd345"></path><path d="M348 86L356 165L458 86Z" fill="#cac147" stroke="#cac147"></path><path d="M382 54L348 86L458 86Z" fill="#8b9c4b" stroke="#8b9c4b"></path><path d="M783 323L776 259L741 314Z" fill="#d6c746" stroke="#d6c746"></path><path d="M741 314L776 259L696 240Z" fill="#d6c746" stroke="#d6c746"></path><path d="M695 179L750 137L669 126Z" fill="#a8af4a" stroke="#a8af4a"></path><path d="M669 126L740 82L651 92Z" fill="#8b9c4b" stroke="#8b9c4b"></path><path d="M585 540L637 540L628 481Z" fill="#94a24b" stroke="#94a24b"></path><path d="M779 411L783 323L726 327Z" fill="#efd345" stroke="#efd345"></path><path d="M779 411L726 327L723 410Z" fill="#9ea84a" stroke="#9ea84a"></path><path d="M588 0L549 28L588 88Z" fill="#b3b549" stroke="#b3b549"></path><path d="M420 37L382 54L458 86Z" fill="#cac147" stroke="#cac147"></path><path d="M588 0L588 88L633 81Z" fill="#bebb48" stroke="#bebb48"></path><path d="M420 37L458 86L497 51Z" fill="#94a24b" stroke="#94a24b"></path><path d="M484 0L420 37L497 51Z" fill="#bebb48" stroke="#bebb48"></path><path d="M313 84L318 93L348 86Z" fill="#94a24b" stroke="#94a24b"></path><path d="M348 86L318 93L356 165Z" fill="#94a24b" stroke="#94a24b"></path><path d="M353 540L346 483L238 540Z" fill="#94a24b" stroke="#94a24b"></path><path d="M353 540L355 540L357 488Z" fill="#94a24b" stroke="#94a24b"></path><path d="M357 488L355 540L444 464Z" fill="#94a24b" stroke="#94a24b"></path><path d="M261 460L346 483L332 452Z" fill="#8b9c4b" stroke="#8b9c4b"></path><path d="M777 173L750 137L695 179Z" fill="#94a24b" stroke="#94a24b"></path><path d="M626 0L588 0L633 81Z" fill="#e2cd46" stroke="#e2cd46"></path><path d="M198 289L221 322L261 323Z" fill="#b3b549" stroke="#b3b549"></path><path d="M226 392L351 366L271 324Z" fill="#b3b549" stroke="#b3b549"></path><path d="M198 289L261 323L264 213Z" fill="#cac147" stroke="#cac147"></path><path d="M719 508L779 411L723 410Z" fill="#d6c746" stroke="#d6c746"></path><path d="M637 540L677 540L628 481Z" fill="#bebb48" stroke="#bebb48"></path><path d="M318 93L258 128L356 165Z" fill="#e2cd46" stroke="#e2cd46"></path><path d="M309 0L313 84L348 86Z" fill="#cac147" stroke="#cac147"></path><path d="M309 0L348 86L382 54Z" fill="#8b9c4b" stroke="#8b9c4b"></path><path d="M677 540L719 508L628 481Z" fill="#a8af4a" stroke="#a8af4a"></path><path d="M776 259L777 173L696 240Z" fill="#9ea84a" stroke="#9ea84a"></path><path d="M810 229L777 173L776 259Z" fill="#9ea84a" stroke="#9ea84a"></path><path d="M226 392L271 324L261 323Z" fill="#a8af4a" stroke="#a8af4a"></path><path d="M221 322L226 392L261 323Z" fill="#cac147" stroke="#cac147"></path><path d="M588 0L510 0L549 28Z" fill="#82954b" stroke="#82954b"></path><path d="M549 28L510 0L497 51Z" fill="#efd345" stroke="#efd345"></path><path d="M510 0L484 0L497 51Z" fill="#a8af4a" stroke="#a8af4a"></path><path d="M420 37L393 0L382 54Z" fill="#d6c746" stroke="#d6c746"></path><path d="M258 128L220 214L267 191Z" fill="#82954b" stroke="#82954b"></path><path d="M267 191L220 214L264 213Z" fill="#d6c746" stroke="#d6c746"></path><path d="M313 84L258 128L318 93Z" fill="#94a24b" stroke="#94a24b"></path><path d="M823 329L776 259L783 323Z" fill="#efd345" stroke="#efd345"></path><path d="M823 329L810 229L776 259Z" fill="#94a24b" stroke="#94a24b"></path><path d="M626 0L633 81L651 92Z" fill="#a8af4a" stroke="#a8af4a"></path><path d="M220 214L198 289L264 213Z" fill="#94a24b" stroke="#94a24b"></path><path d="M146 371L156 404L226 392Z" fill="#e2cd46" stroke="#e2cd46"></path><path d="M814 397L823 329L783 323Z" fill="#bebb48" stroke="#bebb48"></path><path d="M782 65L740 82L750 137Z" fill="#efd345" stroke="#efd345"></path><path d="M750 137L740 82L669 126Z" fill="#e2cd46" stroke="#e2cd46"></path><path d="M782 65L750 137L849 138Z" fill="#b3b549" stroke="#b3b549"></path><path d="M842 454L814 397L779 411Z" fill="#e2cd46" stroke="#e2cd46"></path><path d="M779 411L814 397L783 323Z" fill="#a8af4a" stroke="#a8af4a"></path><path d="M736 0L626 0L651 92Z" fill="#efd345" stroke="#efd345"></path><path d="M484 0L393 0L420 37Z" fill="#d6c746" stroke="#d6c746"></path><path d="M313 84L232 82L258 128Z" fill="#cac147" stroke="#cac147"></path><path d="M226 392L216 478L261 460Z" fill="#a8af4a" stroke="#a8af4a"></path><path d="M261 460L238 540L346 483Z" fill="#d6c746" stroke="#d6c746"></path><path d="M156 404L216 478L226 392Z" fill="#b3b549" stroke="#b3b549"></path><path d="M309 0L232 82L313 84Z" fill="#e2cd46" stroke="#e2cd46"></path><path d="M258 128L167 151L220 214Z" fill="#efd345" stroke="#efd345"></path><path d="M220 214L156 239L198 289Z" fill="#82954b" stroke="#82954b"></path><path d="M719 508L798 508L779 411Z" fill="#cac147" stroke="#cac147"></path><path d="M783 540L798 508L719 508Z" fill="#94a24b" stroke="#94a24b"></path><path d="M849 138L750 137L777 173Z" fill="#8b9c4b" stroke="#8b9c4b"></path><path d="M740 82L736 0L651 92Z" fill="#bebb48" stroke="#bebb48"></path><path d="M160 156L156 239L220 214Z" fill="#bebb48" stroke="#bebb48"></path><path d="M146 371L226 392L221 322Z" fill="#94a24b" stroke="#94a24b"></path><path d="M393 0L309 0L382 54Z" fill="#82954b" stroke="#82954b"></path><path d="M677 540L783 540L719 508Z" fill="#bebb48" stroke="#bebb48"></path><path d="M216 478L238 540L261 460Z" fill="#94a24b" stroke="#94a24b"></path><path d="M853 477L842 454L798 508Z" fill="#e2cd46" stroke="#e2cd46"></path><path d="M798 508L842 454L779 411Z" fill="#d6c746" stroke="#d6c746"></path><path d="M814 397L877 331L823 329Z" fill="#cac147" stroke="#cac147"></path><path d="M907 244L861 194L810 229Z" fill="#bebb48" stroke="#bebb48"></path><path d="M877 331L810 229L823 329Z" fill="#d6c746" stroke="#d6c746"></path><path d="M810 229L861 194L777 173Z" fill="#bebb48" stroke="#bebb48"></path><path d="M905 390L877 331L814 397Z" fill="#9ea84a" stroke="#9ea84a"></path><path d="M146 371L221 322L198 289Z" fill="#8b9c4b" stroke="#8b9c4b"></path><path d="M216 478L199 540L238 540Z" fill="#8b9c4b" stroke="#8b9c4b"></path><path d="M133 273L146 371L198 289Z" fill="#bebb48" stroke="#bebb48"></path><path d="M183 99L167 151L258 128Z" fill="#cac147" stroke="#cac147"></path><path d="M160 156L167 151L111 104Z" fill="#82954b" stroke="#82954b"></path><path d="M782 65L736 0L740 82Z" fill="#94a24b" stroke="#94a24b"></path><path d="M861 194L849 138L777 173Z" fill="#9ea84a" stroke="#9ea84a"></path><path d="M782 65L772 0L736 0Z" fill="#9ea84a" stroke="#9ea84a"></path><path d="M52 220L133 273L156 239Z" fill="#8b9c4b" stroke="#8b9c4b"></path><path d="M156 239L133 273L198 289Z" fill="#efd345" stroke="#efd345"></path><path d="M183 99L258 128L232 82Z" fill="#bebb48" stroke="#bebb48"></path><path d="M167 151L160 156L220 214Z" fill="#a8af4a" stroke="#a8af4a"></path><path d="M162 40L183 99L232 82Z" fill="#bebb48" stroke="#bebb48"></path><path d="M783 540L812 540L798 508Z" fill="#8b9c4b" stroke="#8b9c4b"></path><path d="M812 540L853 477L798 508Z" fill="#d6c746" stroke="#d6c746"></path><path d="M842 454L905 390L814 397Z" fill="#82954b" stroke="#82954b"></path><path d="M132 491L199 540L216 478Z" fill="#bebb48" stroke="#bebb48"></path><path d="M799 0L772 0L782 65Z" fill="#b3b549" stroke="#b3b549"></path><path d="M849 138L831 62L782 65Z" fill="#cac147" stroke="#cac147"></path><path d="M960 332L907 244L877 331Z" fill="#d6c746" stroke="#d6c746"></path><path d="M877 331L907 244L810 229Z" fill="#cac147" stroke="#cac147"></path><path d="M861 194L903 138L849 138Z" fill="#d6c746" stroke="#d6c746"></path><path d="M849 138L903 138L831 62Z" fill="#94a24b" stroke="#94a24b"></path><path d="M920 457L905 390L842 454Z" fill="#d6c746" stroke="#d6c746"></path><path d="M309 0L225 0L232 82Z" fill="#e2cd46" stroke="#e2cd46"></path><path d="M831 62L799 0L782 65Z" fill="#bebb48" stroke="#bebb48"></path><path d="M89 431L132 491L156 404Z" fill="#efd345" stroke="#efd345"></path><path d="M156 404L132 491L216 478Z" fill="#bebb48" stroke="#bebb48"></path><path d="M133 273L91 315L146 371Z" fill="#82954b" stroke="#82954b"></path><path d="M52 220L91 315L133 273Z" fill="#94a24b" stroke="#94a24b"></path><path d="M52 220L156 239L160 156Z" fill="#e2cd46" stroke="#e2cd46"></path><path d="M111 104L167 151L183 99Z" fill="#9ea84a" stroke="#9ea84a"></path><path d="M89 431L156 404L146 371Z" fill="#8b9c4b" stroke="#8b9c4b"></path><path d="M926 192L903 138L861 194Z" fill="#cac147" stroke="#cac147"></path><path d="M831 62L858 0L799 0Z" fill="#82954b" stroke="#82954b"></path><path d="M907 244L926 192L861 194Z" fill="#94a24b" stroke="#94a24b"></path><path d="M960 207L926 192L907 244Z" fill="#94a24b" stroke="#94a24b"></path><path d="M162 40L143 76L183 99Z" fill="#cac147" stroke="#cac147"></path><path d="M225 0L162 40L232 82Z" fill="#9ea84a" stroke="#9ea84a"></path><path d="M853 477L920 457L842 454Z" fill="#bebb48" stroke="#bebb48"></path><path d="M905 390L960 332L877 331Z" fill="#d6c746" stroke="#d6c746"></path><path d="M928 479L920 457L853 477Z" fill="#d6c746" stroke="#d6c746"></path><path d="M47 392L89 431L146 371Z" fill="#d6c746" stroke="#d6c746"></path><path d="M32 540L139 540L132 491Z" fill="#b3b549" stroke="#b3b549"></path><path d="M132 491L139 540L199 540Z" fill="#bebb48" stroke="#bebb48"></path><path d="M225 0L183 0L162 40Z" fill="#cac147" stroke="#cac147"></path><path d="M75 65L111 104L143 76Z" fill="#9ea84a" stroke="#9ea84a"></path><path d="M75 65L143 76L110 0Z" fill="#efd345" stroke="#efd345"></path><path d="M143 76L111 104L183 99Z" fill="#82954b" stroke="#82954b"></path><path d="M960 385L960 332L905 390Z" fill="#e2cd46" stroke="#e2cd46"></path><path d="M933 540L928 479L853 477Z" fill="#bebb48" stroke="#bebb48"></path><path d="M960 408L960 385L905 390Z" fill="#efd345" stroke="#efd345"></path><path d="M960 408L905 390L920 457Z" fill="#8b9c4b" stroke="#8b9c4b"></path><path d="M922 35L858 0L831 62Z" fill="#efd345" stroke="#efd345"></path><path d="M922 35L831 62L903 138Z" fill="#a8af4a" stroke="#a8af4a"></path><path d="M960 332L960 207L907 244Z" fill="#a8af4a" stroke="#a8af4a"></path><path d="M926 192L960 127L903 138Z" fill="#bebb48" stroke="#bebb48"></path><path d="M960 475L960 408L920 457Z" fill="#a8af4a" stroke="#a8af4a"></path><path d="M960 207L960 190L926 192Z" fill="#94a24b" stroke="#94a24b"></path><path d="M75 65L75 137L111 104Z" fill="#a8af4a" stroke="#a8af4a"></path><path d="M111 104L75 137L160 156Z" fill="#bebb48" stroke="#bebb48"></path><path d="M91 315L47 392L146 371Z" fill="#9ea84a" stroke="#9ea84a"></path><path d="M75 137L52 220L160 156Z" fill="#b3b549" stroke="#b3b549"></path><path d="M0 368L47 392L91 315Z" fill="#a8af4a" stroke="#a8af4a"></path><path d="M89 431L46 478L132 491Z" fill="#a8af4a" stroke="#a8af4a"></path><path d="M0 383L46 424L47 392Z" fill="#82954b" stroke="#82954b"></path><path d="M47 392L46 424L89 431Z" fill="#bebb48" stroke="#bebb48"></path><path d="M960 190L960 127L926 192Z" fill="#a8af4a" stroke="#a8af4a"></path><path d="M960 540L960 475L928 479Z" fill="#bebb48" stroke="#bebb48"></path><path d="M928 479L960 475L920 457Z" fill="#b3b549" stroke="#b3b549"></path><path d="M812 540L933 540L853 477Z" fill="#9ea84a" stroke="#9ea84a"></path><path d="M960 93L922 35L903 138Z" fill="#82954b" stroke="#82954b"></path><path d="M75 137L29 204L52 220Z" fill="#d6c746" stroke="#d6c746"></path><path d="M52 220L0 261L91 315Z" fill="#cac147" stroke="#cac147"></path><path d="M110 0L143 76L162 40Z" fill="#bebb48" stroke="#bebb48"></path><path d="M0 153L0 191L29 204Z" fill="#cac147" stroke="#cac147"></path><path d="M960 127L960 93L903 138Z" fill="#efd345" stroke="#efd345"></path><path d="M0 480L46 478L46 424Z" fill="#9ea84a" stroke="#9ea84a"></path><path d="M46 424L46 478L89 431Z" fill="#a8af4a" stroke="#a8af4a"></path><path d="M183 0L110 0L162 40Z" fill="#b3b549" stroke="#b3b549"></path><path d="M933 540L960 540L928 479Z" fill="#efd345" stroke="#efd345"></path><path d="M0 247L52 220L29 204Z" fill="#bebb48" stroke="#bebb48"></path><path d="M0 247L0 261L52 220Z" fill="#94a24b" stroke="#94a24b"></path><path d="M0 191L0 247L29 204Z" fill="#9ea84a" stroke="#9ea84a"></path><path d="M0 261L0 368L91 315Z" fill="#b3b549" stroke="#b3b549"></path><path d="M110 0L91 0L75 65Z" fill="#e2cd46" stroke="#e2cd46"></path><path d="M0 153L29 204L75 137Z" fill="#d6c746" stroke="#d6c746"></path><path d="M0 368L0 383L47 392Z" fill="#efd345" stroke="#efd345"></path><path d="M0 153L75 137L0 65Z" fill="#9ea84a" stroke="#9ea84a"></path><path d="M0 65L75 137L75 65Z" fill="#8b9c4b" stroke="#8b9c4b"></path><path d="M46 478L32 540L132 491Z" fill="#e2cd46" stroke="#e2cd46"></path><path d="M0 480L32 540L46 478Z" fill="#d6c746" stroke="#d6c746"></path><path d="M960 93L960 0L922 35Z" fill="#cac147" stroke="#cac147"></path><path d="M922 35L960 0L858 0Z" fill="#d6c746" stroke="#d6c746"></path><path d="M0 383L0 480L46 424Z" fill="#a8af4a" stroke="#a8af4a"></path><path d="M0 0L0 65L75 65Z" fill="#d6c746" stroke="#d6c746"></path><path d="M0 480L0 540L32 540Z" fill="#94a24b" stroke="#94a24b"></path><path d="M91 0L0 0L75 65Z" fill="#cac147" stroke="#cac147"></path></g></svg>